<mxfile modified="2020-11-10T12:58:50.618Z" host="app.diagrams.net" agent="5.0 (Windows NT 10.0; Win64; x64) AppleWebKit/537.36 (KHTML, like Gecko) Chrome/86.0.4240.183 Safari/537.36" etag="zxQxWNeNZk4w2yVcnKY6" version="13.9.2" type="github">
  <diagram id="Ht1M8jgEwFfnCIfOTk4-" name="Page-1">
    <mxGraphModel dx="6650" dy="4010" grid="1" gridSize="10" guides="1" tooltips="1" connect="1" arrows="1" fold="1" page="1" pageScale="1" pageWidth="4681" pageHeight="3300" math="0" shadow="0">
      <root>
        <mxCell id="0" />
        <mxCell id="1" parent="0" />
        <mxCell id="8GEFBkU2QKpO8UW0B2yC-3" value="" style="shape=image;html=1;verticalAlign=top;verticalLabelPosition=bottom;labelBackgroundColor=#ffffff;imageAspect=0;aspect=fixed;image=https://cdn3.iconfinder.com/data/icons/tiny-weather-1/512/flash-cloud-128.png" parent="1" vertex="1">
          <mxGeometry x="400" y="180" width="120" height="120" as="geometry" />
        </mxCell>
        <mxCell id="8GEFBkU2QKpO8UW0B2yC-4" value="" style="shape=image;html=1;verticalAlign=top;verticalLabelPosition=bottom;labelBackgroundColor=#ffffff;imageAspect=0;aspect=fixed;image=https://cdn2.iconfinder.com/data/icons/social-media-2259/512/search-128.png" parent="1" vertex="1">
          <mxGeometry x="460.5" y="1560" width="100" height="100" as="geometry" />
        </mxCell>
        <mxCell id="8GEFBkU2QKpO8UW0B2yC-5" value="" style="shape=image;html=1;verticalAlign=top;verticalLabelPosition=bottom;labelBackgroundColor=#ffffff;imageAspect=0;aspect=fixed;image=https://cdn1.iconfinder.com/data/icons/coronavirus-disease/64/patient-128.png" parent="1" vertex="1">
          <mxGeometry x="112.56" y="860" width="130" height="130" as="geometry" />
        </mxCell>
        <mxCell id="8GEFBkU2QKpO8UW0B2yC-6" value="" style="shape=mxgraph.signs.healthcare.hospital_1;html=1;pointerEvents=1;fillColor=#000000;strokeColor=none;verticalLabelPosition=bottom;verticalAlign=top;align=center;" parent="1" vertex="1">
          <mxGeometry x="576.5" y="40" width="83.5" height="80" as="geometry" />
        </mxCell>
        <mxCell id="8GEFBkU2QKpO8UW0B2yC-7" value="" style="shape=image;html=1;verticalAlign=top;verticalLabelPosition=bottom;labelBackgroundColor=#ffffff;imageAspect=0;aspect=fixed;image=https://cdn3.iconfinder.com/data/icons/facebook-ui-flat/48/Facebook_UI-08-128.png" parent="1" vertex="1">
          <mxGeometry x="284" y="1280" width="250" height="250" as="geometry" />
        </mxCell>
        <mxCell id="8GEFBkU2QKpO8UW0B2yC-8" value="" style="ellipse;shape=cloud;whiteSpace=wrap;html=1;" parent="1" vertex="1">
          <mxGeometry x="900" y="320" width="1320" height="1160" as="geometry" />
        </mxCell>
        <mxCell id="8GEFBkU2QKpO8UW0B2yC-9" value="" style="outlineConnect=0;fontColor=#232F3E;gradientColor=none;fillColor=#277116;strokeColor=none;dashed=0;verticalLabelPosition=bottom;verticalAlign=top;align=center;html=1;fontSize=12;fontStyle=0;aspect=fixed;pointerEvents=1;shape=mxgraph.aws4.bucket_with_objects;" parent="1" vertex="1">
          <mxGeometry x="1540" y="650" width="367.31" height="382" as="geometry" />
        </mxCell>
        <mxCell id="8GEFBkU2QKpO8UW0B2yC-11" value="" style="html=1;verticalLabelPosition=bottom;align=center;labelBackgroundColor=#ffffff;verticalAlign=top;strokeWidth=2;strokeColor=#0080F0;shadow=0;dashed=0;shape=mxgraph.ios7.icons.clock;" parent="1" vertex="1">
          <mxGeometry x="294" y="400" width="80" height="70" as="geometry" />
        </mxCell>
        <mxCell id="8GEFBkU2QKpO8UW0B2yC-12" value="" style="shape=mxgraph.signs.healthcare.family_practice;html=1;pointerEvents=1;fillColor=#000000;strokeColor=none;verticalLabelPosition=bottom;verticalAlign=top;align=center;" parent="1" vertex="1">
          <mxGeometry x="187.19" y="590" width="121.81" height="110" as="geometry" />
        </mxCell>
        <mxCell id="8GEFBkU2QKpO8UW0B2yC-13" value="" style="html=1;verticalLabelPosition=bottom;align=center;labelBackgroundColor=#ffffff;verticalAlign=top;strokeWidth=2;strokeColor=#0080F0;shadow=0;dashed=0;shape=mxgraph.ios7.icons.clock;" parent="1" vertex="1">
          <mxGeometry x="170" y="650" width="72.56" height="60" as="geometry" />
        </mxCell>
        <mxCell id="8GEFBkU2QKpO8UW0B2yC-14" value="" style="shape=image;html=1;verticalAlign=top;verticalLabelPosition=bottom;labelBackgroundColor=#ffffff;imageAspect=0;aspect=fixed;image=https://cdn2.iconfinder.com/data/icons/dellipack/128/people.png" parent="1" vertex="1">
          <mxGeometry x="620" y="1730" width="120" height="120" as="geometry" />
        </mxCell>
        <mxCell id="8GEFBkU2QKpO8UW0B2yC-15" value="" style="html=1;verticalLabelPosition=bottom;align=center;labelBackgroundColor=#ffffff;verticalAlign=top;strokeWidth=2;strokeColor=#0080F0;shadow=0;dashed=0;shape=mxgraph.ios7.icons.clock;" parent="1" vertex="1">
          <mxGeometry x="690" y="1810" width="70" height="60" as="geometry" />
        </mxCell>
        <mxCell id="8GEFBkU2QKpO8UW0B2yC-16" value="" style="image;html=1;image=img/lib/clip_art/general/Earth_globe_128x128.png" parent="1" vertex="1">
          <mxGeometry x="234.75" y="1100" width="125.25" height="110" as="geometry" />
        </mxCell>
        <mxCell id="8GEFBkU2QKpO8UW0B2yC-17" value="" style="html=1;verticalLabelPosition=bottom;align=center;labelBackgroundColor=#ffffff;verticalAlign=top;strokeWidth=2;strokeColor=#0080F0;shadow=0;dashed=0;shape=mxgraph.ios7.icons.clock;" parent="1" vertex="1">
          <mxGeometry x="298" y="1160" width="72" height="60" as="geometry" />
        </mxCell>
        <mxCell id="8GEFBkU2QKpO8UW0B2yC-18" value="&lt;font style=&quot;font-size: 18px&quot;&gt;CASE . CSV&lt;/font&gt;" style="text;html=1;strokeColor=none;fillColor=none;align=center;verticalAlign=middle;whiteSpace=wrap;rounded=0;" parent="1" vertex="1">
          <mxGeometry x="503" y="140" width="256" height="20" as="geometry" />
        </mxCell>
        <mxCell id="8GEFBkU2QKpO8UW0B2yC-20" value="&lt;font style=&quot;font-size: 18px&quot;&gt;TIME.CSV&lt;/font&gt;" style="text;html=1;strokeColor=none;fillColor=none;align=center;verticalAlign=middle;whiteSpace=wrap;rounded=0;" parent="1" vertex="1">
          <mxGeometry x="207.44" y="490" width="256" height="20" as="geometry" />
        </mxCell>
        <mxCell id="8GEFBkU2QKpO8UW0B2yC-30" value="&lt;font style=&quot;font-size: 18px&quot;&gt;WEATHER&amp;nbsp; . CSV&lt;/font&gt;" style="text;html=1;strokeColor=none;fillColor=none;align=center;verticalAlign=middle;whiteSpace=wrap;rounded=0;" parent="1" vertex="1">
          <mxGeometry x="374" y="310" width="197.5" height="20" as="geometry" />
        </mxCell>
        <mxCell id="8GEFBkU2QKpO8UW0B2yC-41" value="" style="endArrow=classic;html=1;" parent="1" edge="1">
          <mxGeometry width="50" height="50" relative="1" as="geometry">
            <mxPoint x="671.75" y="160" as="sourcePoint" />
            <mxPoint x="840" y="320" as="targetPoint" />
          </mxGeometry>
        </mxCell>
        <mxCell id="hV9DmxrJN-JSG0bnAaLr-3" value="&lt;font style=&quot;font-size: 14px&quot;&gt;CONTINUOUS STREAM&lt;/font&gt;" style="text;html=1;strokeColor=#6F0000;fillColor=#a20025;align=center;verticalAlign=middle;whiteSpace=wrap;rounded=0;fontColor=#ffffff;" vertex="1" parent="1">
          <mxGeometry x="400" y="30" width="171.5" height="20" as="geometry" />
        </mxCell>
        <mxCell id="hV9DmxrJN-JSG0bnAaLr-4" value="&lt;font style=&quot;font-size: 14px&quot;&gt;DIALY BATCH DATA&lt;/font&gt;" style="text;html=1;strokeColor=#2D7600;fillColor=#60a917;align=center;verticalAlign=middle;whiteSpace=wrap;rounded=0;fontStyle=1;fontColor=#ffffff;" vertex="1" parent="1">
          <mxGeometry x="270" y="180" width="155.25" height="20" as="geometry" />
        </mxCell>
        <mxCell id="hV9DmxrJN-JSG0bnAaLr-18" value="&lt;font style=&quot;font-size: 14px&quot;&gt;DIALY BATCH DATA&lt;/font&gt;" style="text;html=1;strokeColor=#2D7600;fillColor=#60a917;align=center;verticalAlign=middle;whiteSpace=wrap;rounded=0;fontStyle=1;fontColor=#ffffff;" vertex="1" parent="1">
          <mxGeometry x="120" y="390" width="164" height="20" as="geometry" />
        </mxCell>
        <mxCell id="hV9DmxrJN-JSG0bnAaLr-20" value="&lt;font style=&quot;font-size: 14px&quot;&gt;DIALY BATCH DATA&lt;/font&gt;" style="text;html=1;strokeColor=#2D7600;fillColor=#60a917;align=center;verticalAlign=middle;whiteSpace=wrap;rounded=0;fontStyle=1;fontColor=#ffffff;" vertex="1" parent="1">
          <mxGeometry x="60" y="560" width="170" height="20" as="geometry" />
        </mxCell>
        <mxCell id="hV9DmxrJN-JSG0bnAaLr-21" value="&lt;font style=&quot;font-size: 14px&quot;&gt;CONTINUOUS STREAM&lt;/font&gt;" style="text;html=1;strokeColor=#6F0000;fillColor=#a20025;align=center;verticalAlign=middle;whiteSpace=wrap;rounded=0;fontColor=#ffffff;" vertex="1" parent="1">
          <mxGeometry x="20" y="810" width="171.5" height="20" as="geometry" />
        </mxCell>
        <mxCell id="hV9DmxrJN-JSG0bnAaLr-22" value="&lt;font style=&quot;font-size: 18px&quot;&gt;TIME_AGE.CSV&lt;/font&gt;" style="text;html=1;strokeColor=none;fillColor=none;align=center;verticalAlign=middle;whiteSpace=wrap;rounded=0;" vertex="1" parent="1">
          <mxGeometry x="157" y="720" width="256" height="20" as="geometry" />
        </mxCell>
        <mxCell id="hV9DmxrJN-JSG0bnAaLr-23" value="&lt;font style=&quot;font-size: 18px&quot;&gt;PATIENT_INFO.CSV&lt;/font&gt;" style="text;html=1;strokeColor=none;fillColor=none;align=center;verticalAlign=middle;whiteSpace=wrap;rounded=0;" vertex="1" parent="1">
          <mxGeometry x="53" y="1010" width="256" height="20" as="geometry" />
        </mxCell>
        <mxCell id="hV9DmxrJN-JSG0bnAaLr-26" value="&lt;font style=&quot;font-size: 18px&quot;&gt;TIME_PROVINCE.CSV&lt;/font&gt;" style="text;html=1;strokeColor=none;fillColor=none;align=center;verticalAlign=middle;whiteSpace=wrap;rounded=0;" vertex="1" parent="1">
          <mxGeometry x="191.5" y="1230" width="256" height="20" as="geometry" />
        </mxCell>
        <mxCell id="hV9DmxrJN-JSG0bnAaLr-27" value="&lt;font style=&quot;font-size: 14px&quot;&gt;DIALY BATCH DATA&lt;/font&gt;" style="text;html=1;strokeColor=#2D7600;fillColor=#60a917;align=center;verticalAlign=middle;whiteSpace=wrap;rounded=0;fontStyle=1;fontColor=#ffffff;" vertex="1" parent="1">
          <mxGeometry x="110" y="1090" width="140.5" height="20" as="geometry" />
        </mxCell>
        <mxCell id="hV9DmxrJN-JSG0bnAaLr-32" value="&lt;font style=&quot;font-size: 18px&quot;&gt;REGION.CSV&lt;/font&gt;" style="text;html=1;strokeColor=none;fillColor=none;align=center;verticalAlign=middle;whiteSpace=wrap;rounded=0;" vertex="1" parent="1">
          <mxGeometry x="284" y="1490" width="256" height="20" as="geometry" />
        </mxCell>
        <mxCell id="hV9DmxrJN-JSG0bnAaLr-33" value="&lt;font style=&quot;font-size: 14px&quot;&gt;STATIC DATA&lt;/font&gt;" style="text;html=1;strokeColor=#36393d;fillColor=#ffff88;align=center;verticalAlign=middle;whiteSpace=wrap;rounded=0;fontStyle=1;" vertex="1" parent="1">
          <mxGeometry x="262.05999999999995" y="1340" width="107.94" height="20" as="geometry" />
        </mxCell>
        <mxCell id="hV9DmxrJN-JSG0bnAaLr-35" value="&lt;font style=&quot;font-size: 18px&quot;&gt;SEARCH _ TREND .CSV&lt;/font&gt;" style="text;html=1;strokeColor=none;fillColor=none;align=center;verticalAlign=middle;whiteSpace=wrap;rounded=0;" vertex="1" parent="1">
          <mxGeometry x="382.5" y="1680" width="256" height="20" as="geometry" />
        </mxCell>
        <mxCell id="hV9DmxrJN-JSG0bnAaLr-36" value="&lt;font style=&quot;font-size: 14px&quot;&gt;DIALY BATCH DATA&lt;/font&gt;" style="text;html=1;strokeColor=#2D7600;fillColor=#60a917;align=center;verticalAlign=middle;whiteSpace=wrap;rounded=0;fontStyle=1;fontColor=#ffffff;" vertex="1" parent="1">
          <mxGeometry x="307" y="1560" width="140.5" height="20" as="geometry" />
        </mxCell>
        <mxCell id="hV9DmxrJN-JSG0bnAaLr-37" value="&lt;font style=&quot;font-size: 18px&quot;&gt;TIME_GENDER .CSV&lt;/font&gt;" style="text;html=1;strokeColor=none;fillColor=none;align=center;verticalAlign=middle;whiteSpace=wrap;rounded=0;" vertex="1" parent="1">
          <mxGeometry x="571.5" y="1880" width="256" height="20" as="geometry" />
        </mxCell>
        <mxCell id="hV9DmxrJN-JSG0bnAaLr-38" value="&lt;font style=&quot;font-size: 14px&quot;&gt;DIALY BATCH DATA&lt;/font&gt;" style="text;html=1;strokeColor=#2D7600;fillColor=#60a917;align=center;verticalAlign=middle;whiteSpace=wrap;rounded=0;fontStyle=1;fontColor=#ffffff;" vertex="1" parent="1">
          <mxGeometry x="479.5" y="1750" width="140.5" height="20" as="geometry" />
        </mxCell>
      </root>
    </mxGraphModel>
  </diagram>
</mxfile>
